<svg width="227" height="60" viewBox="0 0 227 60" fill="none" xmlns="http://www.w3.org/2000/svg">
<path d="M109.736 37.7653H97.7956L94.7984 46.7777C94.7541 47.0475 94.5723 47.1846 94.253 47.1846H88.8527C88.4891 47.1846 88.4005 47.0032 88.4891 46.6848L99.2056 16.163C99.4317 15.6633 99.6135 14.6683 99.6578 13.2665C99.6578 13.041 99.7952 12.9481 100.021 12.9481H107.421C107.603 12.9481 107.741 13.0366 107.829 13.2179L119.769 46.7291C119.858 47.0475 119.769 47.1801 119.45 47.1801H113.367C113.141 47.1801 112.959 47.043 112.866 46.8175L109.736 37.7653ZM99.1124 32.786H108.375C108.237 32.2863 107.51 30.115 106.193 26.2633C104.921 22.3673 104.061 19.6963 103.653 18.2503H103.608C103.245 20.0147 101.746 24.8614 99.1124 32.786Z" fill="#E63523"/>
<path d="M134.299 47.6842C130.304 47.6842 127.125 46.5963 124.673 44.4693C122.266 42.2936 121.086 39.0787 121.086 34.8688C121.086 31.0657 122.359 27.9392 124.944 25.4495C127.533 22.9599 131.027 21.6907 135.385 21.6907C136.564 21.6907 137.566 21.7791 138.289 22.0091V10.507C138.289 10.2815 138.427 10.1444 138.653 10.1444H144.51C144.736 10.1444 144.829 10.2329 144.829 10.4628V41.4357C144.829 42.0238 144.873 43.2001 144.966 44.9204C145.011 45.1459 144.878 45.3272 144.647 45.3714C141.428 46.9147 137.974 47.6842 134.299 47.6842ZM138.249 42.3378V26.7585C137.478 26.3959 136.48 26.2146 135.252 26.2146C132.982 26.2146 131.164 26.9398 129.803 28.4345C128.442 29.885 127.759 31.9192 127.759 34.5946C127.759 37.4027 128.442 39.4855 129.803 40.8431C131.164 42.2007 132.889 42.8817 135.026 42.8817C136.431 42.9304 137.478 42.7491 138.249 42.3378Z" fill="#E63523"/>
<path d="M161.402 21.6908C165.309 21.6908 168.394 22.9113 170.62 25.3568C172.846 27.8022 173.981 30.8801 173.981 34.5947C173.981 38.6233 172.802 41.8382 170.487 44.1952C168.173 46.5036 165.082 47.6799 161.318 47.6799C157.142 47.6799 154.007 46.4107 151.83 43.921C149.648 41.3871 148.607 38.3049 148.607 34.6831C148.607 30.8801 149.786 27.7536 152.1 25.3081C154.455 22.9113 157.545 21.6908 161.402 21.6908ZM161.132 26.1749C159.363 26.1749 157.909 26.9443 156.818 28.439C155.727 29.9337 155.182 31.9723 155.182 34.5991C155.182 37.2259 155.727 39.3087 156.818 40.8476C157.909 42.3865 159.452 43.156 161.402 43.156C163.083 43.156 164.488 42.4308 165.623 41.0289C166.758 39.5785 167.304 37.4514 167.304 34.6433C167.304 32.0608 166.803 30.0266 165.761 28.4832C164.763 26.9443 163.22 26.1749 161.132 26.1749Z" fill="#E63523"/>
<path d="M178.065 10.1444H183.828C184.099 10.1444 184.236 10.2815 184.236 10.5513V22.6415C185.917 22.0091 187.686 21.7349 189.592 21.7349C193.179 21.7349 196.039 22.867 198.172 25.1754C200.353 27.4395 201.395 30.3847 201.395 33.9622C201.395 38.265 200.078 41.617 197.4 44.1067C194.722 46.5521 191.543 47.7726 187.819 47.7726C183.961 47.7726 180.689 47.1403 177.967 45.8269C177.741 45.7385 177.648 45.5571 177.648 45.3272V10.5026C177.701 10.2329 177.794 10.1444 178.065 10.1444ZM194.727 34.5504C194.727 31.9236 194.137 29.9336 192.909 28.5716C191.729 27.214 190.138 26.533 188.098 26.533C186.6 26.533 185.283 26.8027 184.192 27.3467V42.3334C185.19 42.8773 186.506 43.1471 188.143 43.1471C189.96 43.1471 191.503 42.4218 192.771 40.9271C194.093 39.4413 194.727 37.3142 194.727 34.5504Z" fill="#E63523"/>
<path d="M221.108 35.8638H210.755C210.799 37.9466 211.438 39.6226 212.706 40.8918C214.022 42.1123 215.885 42.7491 218.381 42.7491C220.833 42.7491 222.965 42.3422 224.783 41.4799C225.009 41.3915 225.102 41.4799 225.102 41.7497V45.597C225.102 45.9153 225.014 46.0967 224.783 46.2293C222.602 47.2243 220.017 47.724 217.02 47.724C214.705 47.724 212.706 47.3614 210.981 46.6362C209.256 45.9109 207.939 44.9602 206.986 43.691C206.033 42.4705 205.306 41.1084 204.805 39.6624C204.352 38.1677 204.122 36.6288 204.122 34.9528C204.122 31.2382 205.213 28.0719 207.345 25.5336C209.527 22.951 212.519 21.6863 216.288 21.6863C219.875 21.6863 222.553 22.7299 224.322 24.857C226.091 26.984 227 29.4737 227 32.3304C227 33.3741 226.911 34.3691 226.774 35.2756C226.73 35.5011 226.592 35.6382 226.366 35.6824C225.422 35.8195 223.648 35.8638 221.108 35.8638ZM210.71 31.8794H218.022C219.658 31.8794 220.562 31.8352 220.744 31.7909C220.788 31.6539 220.788 31.4283 220.788 31.0657C220.788 29.7523 220.425 28.6202 219.653 27.581C218.926 26.5374 217.747 26.0421 216.066 26.0421C214.43 26.0421 213.162 26.586 212.253 27.7181C211.389 28.8015 210.892 30.2034 210.71 31.8794Z" fill="#E63523"/>
<path d="M42.8612 0H67.9652V60L42.8612 0Z" fill="#E63523"/>
<path d="M25.1528 0H0V60L25.1528 0Z" fill="#E63523"/>
<path d="M34.007 22.0975L49.9863 60H39.5005L34.7342 47.9097H23.0201L34.007 22.0975Z" fill="#E63523"/>
</svg>