<svg width="184" height="60" viewBox="0 0 184 60" fill="none" xmlns="http://www.w3.org/2000/svg">
<path d="M45.0055 21.1935H23.6482V27.5307H38.7962C38.0456 36.4012 30.6542 40.2086 23.6738 40.2086C21.4625 40.2183 19.2713 39.7874 17.2284 38.9411C15.1854 38.0947 13.3315 36.8498 11.7749 35.2791C10.2183 33.7083 8.9902 31.8433 8.16232 29.7927C7.33444 27.7422 6.92335 25.5472 6.95305 23.3361C6.95305 13.7423 14.3803 6.356 23.6943 6.356C30.8793 6.356 35.1133 10.9362 35.1133 10.9362L39.5485 6.34065C39.5485 6.34065 33.8509 0 23.4623 0C10.2334 0 0 11.1648 0 23.2235C0 35.0399 9.62612 46.5629 23.7966 46.5629C36.2613 46.5629 45.3859 38.0234 45.3859 25.3967C45.3859 22.7322 44.9987 21.1935 44.9987 21.1935H45.0055Z" fill="#4885ED"/>
<path d="M62.5023 16.6031C53.7376 16.6031 47.4567 23.4556 47.4567 31.4441C47.4567 39.5537 53.5466 46.5323 62.6046 46.5323C70.803 46.5323 77.5189 40.2667 77.5189 31.6181C77.5189 21.7241 69.7061 16.6014 62.5023 16.6014V16.6031ZM62.5876 22.4815C66.8966 22.4815 70.9804 25.9666 70.9804 31.5805C70.9804 37.0734 66.9136 40.6591 62.5671 40.6591C57.7907 40.6591 54.0378 36.8345 54.0378 31.5362C54.0378 26.3504 57.7566 22.4815 62.6012 22.4815H62.5876Z" fill="#DB3236"/>
<path d="M95.2224 16.6031C86.4577 16.6031 80.1768 23.4556 80.1768 31.4441C80.1768 39.5537 86.2667 46.5323 95.3247 46.5323C103.523 46.5323 110.239 40.2667 110.239 31.6181C110.239 21.7241 102.426 16.6031 95.2224 16.6031ZM95.3077 22.4815C99.6166 22.4815 103.7 25.9666 103.7 31.5805C103.7 37.0734 99.6337 40.6591 95.2872 40.6591C90.5108 40.6591 86.7579 36.8346 86.7579 31.5362C86.7579 26.3504 90.4767 22.4815 95.3213 22.4815H95.3077Z" fill="#F4C20D"/>
<path d="M127.315 16.6202C119.27 16.6202 112.948 23.6654 112.948 31.5737C112.948 40.5806 120.278 46.5545 127.175 46.5545C131.439 46.5545 133.708 44.8606 135.363 42.9177V45.8688C135.363 51.0324 132.227 54.1251 127.495 54.1251C122.924 54.1251 120.631 50.7253 119.819 48.7977L114.067 51.1859C116.107 55.5017 120.215 60.0001 127.543 60.0001C135.561 60.0001 141.637 54.9627 141.637 44.3966V17.5192H135.387V20.0541C133.459 17.973 130.818 16.6202 127.318 16.6202H127.315ZM127.895 22.4884C131.838 22.4884 135.888 25.8557 135.888 31.6061C135.888 37.4521 131.845 40.6728 127.808 40.6728C123.519 40.6728 119.529 37.1928 119.529 31.6607C119.529 25.9154 123.674 22.4867 127.895 22.4867V22.4884Z" fill="#4885ED"/>
<path d="M169.572 16.5844C161.984 16.5844 155.613 22.6231 155.613 31.5276C155.613 40.9542 162.714 46.5442 170.283 46.5442C176.615 46.5442 180.518 43.0813 182.821 39.9767L177.647 36.5343C176.305 38.6154 174.06 40.6539 170.316 40.6539C166.109 40.6539 164.175 38.351 162.975 36.1164L183.041 27.7918L182.018 25.3524C180.08 20.576 175.558 16.5844 169.574 16.5844H169.572ZM169.833 22.3399C172.567 22.3399 174.534 23.7933 175.37 25.5367L161.969 31.137C161.389 26.8007 165.5 22.3399 169.816 22.3399H169.833Z" fill="#DB3236"/>
<path d="M146.031 45.6573H152.623V1.54907H146.031V45.6573Z" fill="#3CBA54"/>
</svg>