<svg width="150" height="60" viewBox="0 0 150 60" fill="none" xmlns="http://www.w3.org/2000/svg">
<path d="M0 0V4.10156H29.209V0H0ZM33.3398 0V4.10156H74.9414C74.9414 4.10156 70.6934 0 65.0684 0H33.3398ZM83.1152 0V4.10156H108.281L106.787 0H83.1152ZM126.328 0L124.834 4.10156H149.766V0H126.328ZM0 7.96875V12.0703H29.209V7.96875H0ZM33.3398 7.99804V12.0996H79.7754C79.7754 12.0996 79.2188 8.93554 78.2813 7.99804H33.3398ZM83.1152 7.99804V12.0996H111.035L109.658 7.99804H83.1152ZM123.34 7.99804L121.963 12.0996H149.795V7.99804H123.34ZM8.37891 15.9668V20.0684H21.0352V15.9668H8.37891ZM41.7188 15.9668V20.0684H54.375V15.9668H41.7188ZM66.6797 15.9668V20.0684H79.3359C79.3359 20.0684 80.127 17.9004 80.127 15.9668H66.6797ZM91.4941 15.9668V20.0684H113.906L112.412 15.9668H91.4941ZM120.586 15.9668L119.092 20.0684H141.621V15.9668H120.586ZM8.37891 23.9648V28.0664H21.0352V23.9648H8.37891ZM41.7188 23.9648V28.0664H74.0039C74.0039 28.0664 76.6992 25.957 77.5781 23.9648H41.7188ZM91.4941 23.9648V28.0664H104.15V25.7813L104.941 28.0664H128.115L128.965 25.7813V28.0664H141.621V23.9648H117.891L116.631 27.4512L115.371 23.9648H91.4941ZM8.37891 31.9336V36.0352H21.0352V31.9336H8.37891ZM41.7188 31.9336V36.0352H77.5781C76.7285 34.043 74.0039 31.9336 74.0039 31.9336H41.7188ZM91.4941 31.9336V36.0352H104.15V31.9336H91.4941ZM106.436 31.9336L107.959 36.0352H125.332L126.797 31.9336H106.436ZM128.965 31.9336V36.0352H141.621V31.9336H128.965ZM8.37891 39.9316V44.0332H21.0352V39.9316H8.37891ZM41.7188 39.9316V44.0332H54.375V39.9316H41.7188ZM66.6797 39.9316V44.0332H80.127C80.127 42.0996 79.3359 39.9316 79.3359 39.9316H66.6797ZM91.4941 39.9316V44.0332H104.15V39.9316H91.4941ZM109.307 39.9316L110.801 44.0332H122.432L123.926 39.9316H109.307ZM128.965 39.9316V44.0332H141.621V39.9316H128.965ZM0.234375 47.9004V52.002H29.4434V47.9004H0.234375ZM33.3398 47.9004V52.002H78.2813C79.2188 51.0645 79.7754 47.9004 79.7754 47.9004H33.3398ZM83.3203 47.9004V52.002H104.121V47.9004H83.3203ZM112.178 47.9004L113.701 52.002H119.619L121.055 47.9004H112.178ZM128.965 47.9004V52.002H150V47.9004H128.965ZM0.234375 55.8984V60H29.4434V55.8984H0.234375ZM33.3398 55.8984V60H65.0684C70.6934 60 74.9414 55.8984 74.9414 55.8984H33.3398ZM83.3203 55.8984V60H104.121V55.8984H83.3203ZM115.078 55.8984L116.543 60H116.807L118.301 55.8984H115.078ZM128.965 55.8984V60H150V55.8984H128.965Z" fill="#1F70C1"/>
</svg>