<svg width="281" height="60" viewBox="0 0 281 60" fill="none" xmlns="http://www.w3.org/2000/svg">
<path d="M281 27.1669V22.2275H274.853V14.5439L274.634 14.5988L268.871 16.355L268.761 16.4099V22.2275H259.651V18.9894C259.651 17.4527 259.98 16.3001 260.638 15.5318C261.297 14.7634 262.23 14.3792 263.437 14.3792C264.316 14.3792 265.194 14.5988 266.127 14.9829L266.346 15.0927V9.87884L266.237 9.82395C265.413 9.49465 264.261 9.38489 262.834 9.38489C261.023 9.38489 259.431 9.76907 258.004 10.5374C256.577 11.3058 255.479 12.4034 254.711 13.8304C253.943 15.2574 253.559 16.849 253.559 18.6601V22.2275H249.278V27.1669H253.559V47.9675H259.705V27.1669H268.816V40.3937C268.816 45.8271 271.395 48.6261 276.445 48.6261C277.268 48.6261 278.146 48.5163 279.024 48.3517C279.957 48.1322 280.561 47.9675 280.945 47.748L281 47.6931V42.6988L280.726 42.8634C280.396 43.0829 279.957 43.2476 279.518 43.4122C279.024 43.5769 278.64 43.6318 278.311 43.6318C277.103 43.6318 276.225 43.3025 275.676 42.6988C275.128 42.0402 274.853 40.9425 274.853 39.4058V27.2218H281V27.1669ZM235.557 43.5769C233.307 43.5769 231.551 42.8634 230.343 41.3816C229.081 39.8997 228.477 37.8142 228.477 35.1798C228.477 32.4357 229.081 30.2952 230.343 28.8134C231.605 27.3316 233.307 26.5632 235.502 26.5632C237.643 26.5632 239.344 27.2767 240.551 28.7036C241.759 30.1306 242.362 32.271 242.362 35.0152C242.362 37.8142 241.759 39.9546 240.661 41.3816C239.509 42.8634 237.807 43.5769 235.557 43.5769ZM235.831 21.6238C231.605 21.6238 228.203 22.8861 225.788 25.3009C223.373 27.7706 222.166 31.1734 222.166 35.3993C222.166 39.4058 223.373 42.6988 225.678 45.0587C228.038 47.4187 231.221 48.6261 235.173 48.6261C239.289 48.6261 242.582 47.3638 244.997 44.8941C247.412 42.4244 248.619 39.0216 248.619 34.9054C248.619 30.7892 247.467 27.5511 245.216 25.1911C243.021 22.7763 239.838 21.6238 235.831 21.6238ZM212.287 21.6238C209.378 21.6238 207.018 22.3372 205.207 23.8191C203.396 25.3009 202.463 27.2218 202.463 29.5269C202.463 30.7343 202.682 31.832 203.066 32.7101C203.451 33.6431 204.054 34.4114 204.878 35.1249C205.701 35.7835 206.963 36.497 208.61 37.2105C209.982 37.7593 211.024 38.2533 211.683 38.6374C212.342 39.0216 212.781 39.4058 213.055 39.7351C213.329 40.1193 213.439 40.6132 213.439 41.2169C213.439 42.9732 212.122 43.7964 209.488 43.7964C208.5 43.7964 207.347 43.5769 206.14 43.1927C204.878 42.8085 203.725 42.2048 202.682 41.4365L202.408 41.2718V47.1991L202.518 47.254C203.396 47.6382 204.493 47.9675 205.756 48.2419C207.018 48.5163 208.225 48.6261 209.213 48.6261C212.342 48.6261 214.866 47.8577 216.732 46.4308C218.598 44.949 219.531 42.9732 219.531 40.5583C219.531 38.8021 219.037 37.3202 218.049 36.1128C217.061 34.9054 215.36 33.8078 212.945 32.8747C211.024 32.1064 209.817 31.4478 209.323 31.0087C208.829 30.5148 208.61 29.8562 208.61 29.0329C208.61 28.2646 208.939 27.6609 209.543 27.2218C210.146 26.7279 211.024 26.5083 212.177 26.5083C213.22 26.5083 214.262 26.673 215.305 27.0023C216.348 27.3316 217.281 27.7158 217.995 28.2646L218.269 28.4292V22.8312L218.159 22.7763C217.446 22.5019 216.513 22.2275 215.415 22.0079C214.208 21.7335 213.165 21.6238 212.287 21.6238ZM186.437 43.5769C184.187 43.5769 182.43 42.8634 181.223 41.3816C179.961 39.8997 179.357 37.8142 179.357 35.1798C179.357 32.4357 179.961 30.2952 181.223 28.8134C182.485 27.3316 184.187 26.5632 186.382 26.5632C188.522 26.5632 190.224 27.2767 191.431 28.7036C192.639 30.1306 193.242 32.271 193.242 35.0152C193.242 37.8142 192.639 39.9546 191.486 41.3816C190.388 42.8634 188.687 43.5769 186.437 43.5769ZM186.711 21.6238C182.485 21.6238 179.083 22.8861 176.668 25.3009C174.253 27.7706 173.045 31.1734 173.045 35.3993C173.045 39.4607 174.253 42.6988 176.558 45.0587C178.918 47.4187 182.101 48.6261 186.053 48.6261C190.169 48.6261 193.462 47.3638 195.877 44.8941C198.292 42.4244 199.499 39.0216 199.499 34.9054C199.499 30.7892 198.346 27.5511 196.096 25.1911C193.901 22.7763 190.718 21.6238 186.711 21.6238ZM163.77 26.673V22.2275H157.733V47.9675H163.77V34.7956C163.77 32.5454 164.264 30.7343 165.307 29.3074C166.295 27.9353 167.612 27.2218 169.204 27.2218C169.753 27.2218 170.356 27.3316 171.015 27.4962C171.673 27.6609 172.167 27.8804 172.442 28.045L172.716 28.2097V22.1177L172.606 22.0628C172.058 21.8433 171.234 21.6786 170.246 21.6786C168.71 21.6786 167.338 22.1726 166.185 23.1056C165.142 23.9288 164.429 25.1363 163.88 26.5632H163.77V26.673ZM146.866 21.6238C144.067 21.6238 141.598 22.2275 139.512 23.38C137.372 24.5325 135.78 26.2339 134.628 28.3743C133.53 30.5148 132.981 32.9845 132.981 35.7835C132.981 38.1984 133.53 40.4486 134.628 42.4244C135.725 44.4001 137.207 45.9368 139.183 47.0345C141.104 48.0773 143.354 48.6261 145.824 48.6261C148.678 48.6261 151.147 48.0773 153.123 46.9247L153.178 46.8699V41.3267L152.903 41.4913C152.025 42.1499 151.037 42.6439 149.94 43.0281C148.842 43.4122 147.909 43.5769 147.031 43.5769C144.671 43.5769 142.75 42.8085 141.378 41.3816C140.006 39.8997 139.293 37.8691 139.293 35.2347C139.293 32.6003 140.006 30.5148 141.488 28.9232C142.915 27.3865 144.836 26.5632 147.196 26.5632C149.171 26.5632 151.147 27.2218 152.958 28.5939L153.233 28.7585V22.8861L153.178 22.8312C152.464 22.447 151.531 22.1177 150.379 21.8982C149.062 21.7335 147.909 21.6238 146.866 21.6238ZM128.755 22.2275H122.718V47.9675H128.755V22.2275ZM125.791 11.2509C124.803 11.2509 123.925 11.5802 123.212 12.2388C122.498 12.8974 122.114 13.7755 122.114 14.7634C122.114 15.7513 122.498 16.5745 123.212 17.2331C123.925 17.8917 124.803 18.221 125.791 18.221C126.779 18.221 127.657 17.8917 128.371 17.2331C129.084 16.5745 129.469 15.7513 129.469 14.7634C129.469 13.7755 129.139 12.9523 128.426 12.2388C127.712 11.5802 126.834 11.2509 125.791 11.2509ZM110.699 20.3066V47.9675H116.9V12.0193H108.339L97.4719 38.6923L86.9343 12.0193H78.0433V47.9675H83.8609V20.3066H84.0804L95.2217 47.9675H99.6123L110.589 20.3066H110.699V20.3066Z" fill="#706D6E"/>
<path d="M28.4842 0H0V28.4842H28.4842V0Z" fill="#F1511B"/>
<path d="M59.9321 0H31.4479V28.4842H59.9321V0Z" fill="#80CC28"/>
<path d="M28.4842 31.5028H0V59.987H28.4842V31.5028Z" fill="#00ADEF"/>
<path d="M59.9321 31.5028H31.4479V59.987H59.9321V31.5028Z" fill="#FBBC09"/>
</svg>