<svg width="122" height="60" viewBox="0 0 122 60" fill="none" xmlns="http://www.w3.org/2000/svg">
<path d="M0 0V59.9663H61.2458L121.212 0H0Z" fill="url(#paint0_linear_9_23)"/>
<path d="M77.5757 53.8384V58.3165H78.2491V56.3637H79.0235L80.2356 58.3165H81.0101L79.6969 56.3637C80.3367 56.2963 80.8754 55.8923 80.8754 55.0842C80.8754 54.2088 80.3366 53.8048 79.2592 53.8048H77.5757V53.8384ZM78.2491 54.4445H79.1919C79.6633 54.4445 80.1683 54.5118 80.1683 55.0842C80.1683 55.7913 79.6632 55.8586 79.0572 55.8586H78.2491V54.4445ZM79.0909 52.1886C76.936 52.1886 75.1178 53.8384 75.1178 56.0607C75.1178 58.3165 76.936 60.0001 79.0909 60.0001C81.2121 60.0001 82.9629 58.3165 82.9629 56.0607C82.9966 53.8384 81.2121 52.1886 79.0909 52.1886ZM79.0909 52.8283C80.8417 52.8283 82.2222 54.2425 82.2222 56.0607C82.2222 57.9462 80.8417 59.293 79.0909 59.293C77.3063 59.293 75.8922 57.9125 75.8922 56.0607C75.8922 54.2425 77.34 52.8283 79.0909 52.8283Z" fill="#1870C5"/>
<path d="M72.6262 28.6869H70V19.0909H72.6262C76.1279 19.0909 78.9225 20.2357 78.9225 23.8384C78.9225 27.5421 76.1279 28.6869 72.6262 28.6869ZM44.3434 35.5556C42.9629 35.5556 41.6498 35.2862 40.505 34.8822L44.2761 22.963H44.3434L48.0471 34.9159C46.9697 35.3199 45.7239 35.5556 44.3434 35.5556ZM71.9192 11.2795H60V39.6633L49.5623 11.2795H39.2256L30.3367 34.9832C29.3939 28.9899 23.1986 26.9361 18.3501 25.3872C15.1515 24.3435 11.7171 22.8283 11.7508 21.1448C11.7845 19.7643 13.569 18.4849 17.138 18.6869C19.5286 18.8216 21.6498 18.9899 25.8586 21.0438L30 13.8384C26.1616 11.8856 20.8417 10.6398 16.4983 10.6398V10.6398C11.4141 10.6398 7.20536 12.2896 4.57909 15.0169C2.76091 16.9024 1.78448 19.3266 1.71714 21.9866C1.6498 25.6566 2.9966 28.2492 5.82489 30.3031C8.21546 32.0539 11.2458 33.165 13.9394 34.0068C17.239 35.0169 19.9663 35.926 19.9326 37.8115C19.899 38.5186 19.6633 39.1583 19.1582 39.6633C18.3165 40.5051 17.0707 40.8418 15.3198 40.8755C11.9528 40.9428 9.42758 40.4041 5.45451 38.0472L1.68347 45.3872C5.65654 47.6431 10.3703 48.9899 15.1852 48.9899H15.7912C19.9663 48.9226 23.367 47.7105 26.0606 45.5556L26.4983 45.1852L25.3198 48.3839H36.1616L37.9798 42.862C39.899 43.5017 42.0538 43.8721 44.3434 43.8721C46.5993 43.8721 48.6868 43.5354 50.5724 42.9293L52.3232 48.4175H70V36.9697H73.872C83.1986 36.9697 88.7205 32.2223 88.7205 24.2761C88.6868 15.3536 83.3333 11.2795 71.9192 11.2795Z" fill="white"/>
<defs>
<linearGradient id="paint0_linear_9_23" x1="60.5978" y1="0.00912932" x2="60.5978" y2="59.9583" gradientUnits="userSpaceOnUse">
<stop stop-color="#00B8F1"/>
<stop offset="0.2199" stop-color="#06A5E5"/>
<stop offset="0.7943" stop-color="#1870C5"/>
<stop offset="1" stop-color="#1D61BC"/>
</linearGradient>
</defs>
</svg>