<svg width="170" height="60" viewBox="0 0 170 60" fill="none" xmlns="http://www.w3.org/2000/svg">
<path d="M46.1712 11.7049C46.1505 11.5755 46.0873 11.4567 45.9916 11.3672C45.896 11.2776 45.7733 11.2224 45.6428 11.2102C45.4318 11.1765 40.7974 10.8557 40.7974 10.8557L37.2638 7.3221C36.9464 6.96756 36.2407 7.07223 35.974 7.14652C35.9402 7.14652 35.2683 7.35755 34.1726 7.71378C33.1056 4.63097 31.2181 1.8014 27.8955 1.8014H27.6119C26.658 0.568953 25.4931 0 24.5055 0C16.7664 0.0337657 13.0758 9.68739 11.9109 14.6206L6.50159 16.2801C4.842 16.8086 4.77954 16.8474 4.56006 18.4293L0 53.6014L34.1844 60L52.7117 56.0055C52.7117 55.9717 46.2067 12.0425 46.1729 11.7083L46.1712 11.7049ZM32.2767 8.30806C31.4156 8.59169 30.4195 8.87532 29.3796 9.19441V8.55792C29.4133 6.96756 29.1719 5.38394 28.6739 3.87124C30.406 4.13799 31.5709 6.0829 32.2767 8.30806ZM26.5871 4.2798C27.1527 5.94614 27.4313 7.70196 27.3604 9.46284V9.78024L21.3838 11.6374C22.5538 7.26976 24.7098 5.11044 26.5838 4.29838L26.5871 4.2798ZM24.2911 2.13062C24.6456 2.13906 24.9883 2.2488 25.2804 2.44801C22.7868 3.60956 20.1514 6.54042 19.0202 12.4089L14.293 13.8575C15.6268 9.40375 18.7383 2.12049 24.2877 2.12049L24.2911 2.13062Z" fill="#95BF47"/>
<path d="M45.6444 11.2087C45.4333 11.1749 40.799 10.8541 40.799 10.8541L37.2654 7.32053C37.1354 7.18547 36.9581 7.11119 36.7707 7.1095L34.191 59.9934L52.7183 55.9989L46.1745 11.7354C46.1306 11.4653 45.9179 11.2492 45.6461 11.207L45.6444 11.2087Z" fill="#5E8E3E"/>
<path d="M27.8939 21.4599L25.5945 28.2468C24.205 27.5715 22.6839 27.2119 21.1408 27.1832C17.5329 27.1832 17.359 29.4455 17.359 30.0128C17.359 33.1023 25.4543 34.2909 25.4543 41.5741C25.4543 47.3008 21.8127 50.9779 16.9336 50.9779C11.0651 50.9779 8.05994 47.3363 8.05994 47.3363L9.61991 42.1363C9.61991 42.1363 12.6926 44.787 15.3128 44.787C15.626 44.7993 15.9384 44.7479 16.2311 44.6358C16.5238 44.5238 16.7907 44.3534 17.0155 44.135C17.2404 43.9167 17.4185 43.6549 17.5391 43.3656C17.6596 43.0763 17.7202 42.7655 17.7169 42.4521C17.7169 38.3833 11.0702 38.2077 11.0702 31.5626C11.0702 25.9744 15.0984 20.5297 23.1954 20.5297C26.3778 20.5769 27.899 21.4582 27.899 21.4582L27.8939 21.4599Z" fill="white"/>
<path d="M68.7977 31.5692C67.4758 30.8602 66.792 30.2473 66.792 29.4082C66.792 28.3446 67.7206 27.6575 69.2282 27.6575C70.3473 27.6817 71.4511 27.9231 72.4782 28.3682L73.6971 24.6641C73.6971 24.6641 72.5795 23.7997 69.3042 23.7997C64.7357 23.7997 61.5617 26.4166 61.5617 30.0937C61.5617 32.1736 63.0339 33.7741 65.0126 34.9154C66.6114 35.844 67.1736 36.4585 67.1736 37.4276C67.1736 38.3967 66.3868 39.2053 64.8893 39.2053C62.6827 39.2053 60.6011 38.0641 60.6011 38.0641L59.3079 41.7682C59.3079 41.7682 61.2376 43.0614 64.4605 43.0614C69.1539 43.0614 72.5305 40.7518 72.5305 36.5784C72.5558 34.3194 70.854 32.746 68.8163 31.5523L68.7977 31.5692ZM87.5276 23.7778C85.218 23.7778 83.3913 24.8701 81.9934 26.5567L81.9157 26.5314L83.9214 16.037H78.6961L73.6195 42.7626H78.8481L80.5988 33.6256C81.2843 30.1747 83.0688 28.0407 84.7351 28.0407C85.9001 28.0407 86.3593 28.8275 86.3593 29.9704C86.3593 30.747 86.2816 31.5186 86.1314 32.28L84.1527 42.7372H89.3813L91.4376 31.9322C91.6622 30.8129 91.7922 29.6767 91.8175 28.5388C91.7922 25.5944 90.244 23.8183 87.5293 23.8183L87.5276 23.7778ZM103.617 23.7778C97.323 23.7778 93.1597 29.4639 93.1597 35.7646C93.1597 39.8266 95.6719 43.0749 100.369 43.0749C106.543 43.0749 110.725 37.5407 110.725 31.0881C110.725 27.3316 108.518 23.7778 103.625 23.7778H103.617ZM101.051 39.0821C99.273 39.0821 98.5132 37.5626 98.5132 35.6886C98.5132 32.6936 100.056 27.7959 102.906 27.7959C104.758 27.7959 105.376 29.3947 105.376 30.9446C105.369 34.1608 103.823 39.0821 101.054 39.0821H101.051ZM124.096 23.7778C120.55 23.7778 118.562 26.864 118.562 26.864H118.484L118.793 24.0851H114.162L113.098 31.0155L109.469 50.1539H114.674L116.122 42.4114H116.223C116.223 42.4114 117.287 43.0968 119.296 43.0968C125.438 43.0968 129.448 36.8029 129.448 30.4415C129.473 26.9383 127.905 23.793 124.092 23.793L124.096 23.7778ZM119.095 39.1581C118.306 39.1738 117.538 38.9026 116.934 38.395L117.799 33.4956C118.416 30.2456 120.108 28.0627 121.935 28.0627C123.534 28.0627 124.015 29.5348 124.015 30.9327C124.023 34.338 122.023 39.1598 119.102 39.1598L119.095 39.1581ZM136.94 16.2649C136.14 16.2599 135.37 16.5773 134.808 17.1462C134.246 17.7152 133.933 18.4867 133.964 19.287C133.964 20.83 134.955 21.9038 136.434 21.9038H136.511C136.915 21.9198 137.317 21.853 137.694 21.7074C138.071 21.5619 138.413 21.3407 138.701 21.0575C138.989 20.7743 139.216 20.4351 139.367 20.0609C139.519 19.6867 139.592 19.2854 139.582 18.8818C139.582 17.3623 138.566 16.2649 136.966 16.2649H136.94ZM129.637 42.7119H134.865L138.418 24.1914H133.17M151.742 24.1661H148.09L148.269 23.3017C148.578 21.5239 149.64 19.9251 151.355 19.9251C151.923 19.9253 152.488 20.0107 153.031 20.1784L154.041 16.0876C154.041 16.0876 153.112 15.6318 151.198 15.6318C149.335 15.5855 147.516 16.2064 146.071 17.3826C144.293 18.902 143.454 21.0867 143.032 23.2966L142.863 24.161H140.427L139.664 28.0947H142.1L139.321 42.7153H144.568L147.347 28.0947H150.953L151.662 24.161L151.742 24.1661ZM164.333 24.1914L159.585 36.9329H159.508L158.214 24.1914H152.704L155.853 41.1958C155.928 41.4865 155.892 41.795 155.751 42.0602C155.067 43.3214 154.093 44.4002 152.908 45.2089C152 45.8336 151.009 46.3299 149.964 46.6811L151.412 51.1213C153.328 50.6086 155.086 49.6289 156.53 48.2698C158.915 46.0345 161.122 42.5836 163.384 37.8868L169.779 24.1813H164.331L164.333 24.1914Z" fill="black"/>
</svg>